<?xml version="1.0" encoding="UTF-8"?>
<svg xmlns="http://www.w3.org/2000/svg" xmlns:xlink="http://www.w3.org/1999/xlink" width="240px" height="240px" viewBox="0 0 240 240" version="1.1">
<g id="surface189293">
<path style=" stroke:none;fill-rule:nonzero;fill:rgb(10.980392%,60%,34.117647%);fill-opacity:1;" d="M 210 195 L 210 45 C 210 36.714844 203.285156 30 195 30 L 45 30 C 36.714844 30 30 36.714844 30 45 L 30 195 C 30 203.285156 36.714844 210 45 210 L 195 210 C 203.285156 210 210 203.285156 210 195 Z M 210 195 "/>
<path style=" stroke:none;fill-rule:nonzero;fill:rgb(24.313725%,48.235294%,94.509804%);fill-opacity:1;" d="M 45 210 L 195 210 C 203.285156 210 120 130 120 130 C 120 130 36.714844 210 45 210 Z M 45 210 "/>
<path style=" stroke:none;fill-rule:nonzero;fill:rgb(79.607843%,80%,78.823529%);fill-opacity:1;" d="M 210 195 L 210 45 C 210 36.714844 130 120 130 120 C 130 120 210 203.285156 210 195 Z M 210 195 "/>
<path style=" stroke:none;fill-rule:nonzero;fill:rgb(93.72549%,93.72549%,93.72549%);fill-opacity:1;" d="M 195 210 C 203.285156 210 210 203.285156 210 195 L 210 193.773438 L 131.226562 115 L 115 131.226562 L 193.773438 210 Z M 195 210 "/>
<path style=" stroke:none;fill-rule:nonzero;fill:rgb(100%,84.313725%,23.921569%);fill-opacity:1;" d="M 210 45 C 210 36.714844 203.285156 30 195 30 L 193.773438 30 L 30 193.773438 L 30 195 C 30 203.285156 36.714844 210 45 210 L 46.226562 210 L 210 46.226562 Z M 210 45 "/>
<path style=" stroke:none;fill-rule:nonzero;fill:rgb(84.313725%,24.705882%,20.784314%);fill-opacity:1;" d="M 180 10 C 152.386719 10 130 32.386719 130 60 C 130 94.066406 168.328125 106.476562 176.664062 159.253906 C 177.199219 162.65625 177.238281 165 180 165 C 182.761719 165 182.800781 162.65625 183.335938 159.253906 C 191.671875 106.476562 230 94.066406 230 60 C 230 32.386719 207.613281 10 180 10 Z M 180 10 "/>
<path style=" stroke:none;fill-rule:nonzero;fill:rgb(45.882353%,14.901961%,13.333333%);fill-opacity:1;" d="M 180 42.5 C 170.335938 42.5 162.5 50.335938 162.5 60 C 162.5 69.664062 170.335938 77.5 180 77.5 C 189.664062 77.5 197.5 69.664062 197.5 60 C 197.5 50.335938 189.664062 42.5 180 42.5 Z M 180 42.5 "/>
<path style=" stroke:none;fill-rule:nonzero;fill:rgb(100%,100%,100%);fill-opacity:1;" d="M 72.464844 62.65625 L 72.464844 73.160156 L 87.433594 73.160156 C 85.476562 79.53125 80.160156 84.085938 72.464844 84.085938 C 63.300781 84.085938 55.875 76.660156 55.875 67.496094 C 55.875 58.328125 63.304688 50.90625 72.464844 50.90625 C 76.585938 50.90625 80.34375 52.414062 83.246094 54.898438 L 90.984375 47.164062 C 86.101562 42.714844 79.601562 40 72.464844 40 C 57.273438 40 44.960938 52.316406 44.960938 67.5 C 44.960938 82.683594 57.273438 95 72.464844 95 C 96.515625 95 100.648438 73.414062 98.386719 62.695312 Z M 72.464844 62.65625 "/>
</g>
</svg>
